# xmcd
#
# Track frame offsets: 
#        150
#        20328
#        39147
#        55931
#        75727
#        94730
#        112882
#        129772
#        145750
#        163782
#
# Disc length: 2418 seconds
#
# Revision: 0
# Processed by: cddbd v1.5.2PL0 Copyright (c) Steve Scherf et al.
# Submitted via: ExactAudioCopy v0.95b4
#
DISCID=6f09700a
DTITLE=น้องเบนซ์ จูเนียร์ - ทำความดี ถวายในหลวง
DYEAR=2007
DGENRE=Country
TTITLE0=ทำความดีถวายในหลวง
TTITLE1=คุณแม่ไม่ปลื้ม
TTITLE2=นกหวีดกันภัย
TTITLE3=ดอกไม้ปลายปืน
TTITLE4=เด็กน้อยเซ็ง
TTITLE5=ขอพรให้พ่อ
TTITLE6=ฝัน
TTITLE7=โมโหหิว
TTITLE8=หนูชอบพกผู้ใหญ่
TTITLE9=เดี๋ยวไฟดูด
EXTD=
EXTT0=
EXTT1=
EXTT2=
EXTT3=
EXTT4=
EXTT5=
EXTT6=
EXTT7=
EXTT8=
EXTT9=
PLAYORDER=
